<svg xmlns="http://www.w3.org/2000/svg" width="25" height="44.75" viewBox="0 0 25 44.75">
  <path id="Path_4" data-name="Path 4" d="M34.424,50.132a.6.6,0,0,1,.576.626v3.366a.578.578,0,1,1-1.151,0V50.758A.6.6,0,0,1,34.424,50.132Zm-19.5-2.9q.039,3.5.039,3.5v1.293a2.613,2.613,0,0,1-2.48,2.722A2.613,2.613,0,0,1,10,52.026v-1.22a.578.578,0,1,1,1.151,0v1.22A1.407,1.407,0,0,0,12.48,53.5a1.407,1.407,0,0,0,1.329-1.471v-1.26l-.039-3.518a.578.578,0,1,1,1.151-.015Zm11.67,2.9h2.5a.628.628,0,0,1,0,1.252h-2.5v.536a2.725,2.725,0,0,1-2.6,2.828,2.725,2.725,0,0,1-2.6-2.828V50.805a.578.578,0,1,1,1.151,0V51.92a1.455,1.455,0,1,0,2.9,0V49.848a.578.578,0,1,1,1.151,0Zm-9.437,0h2.087a.628.628,0,0,1,0,1.252H16.584a.538.538,0,0,1-.115-.013c-.01,0-.019-.007-.029-.01a.561.561,0,0,1-.078-.026c-.012-.006-.023-.014-.035-.021a.582.582,0,0,1-.062-.037c-.012-.008-.021-.019-.032-.029a.654.654,0,0,1-.053-.047c-.01-.011-.017-.023-.026-.034a.607.607,0,0,1-.044-.058c-.008-.013-.013-.027-.02-.04A.629.629,0,0,1,16.055,51c-.006-.015-.009-.032-.014-.048a.606.606,0,0,1-.02-.069c0-.018,0-.037-.006-.055s-.007-.044-.007-.067l-.039-3.518a.578.578,0,1,1,1.151-.015Zm14.722,0a.6.6,0,0,1,.576.626v3.366a.578.578,0,1,1-1.151,0V50.758A.6.6,0,0,1,31.875,50.132Zm-7.886,1.214a.524.524,0,0,1-.382-.171.622.622,0,0,1-.159-.417.613.613,0,0,1,.159-.415.526.526,0,0,1,.765,0,.62.62,0,0,1,.158.415.628.628,0,0,1-.158.417A.528.528,0,0,1,23.989,51.346ZM34.423,49.38a.524.524,0,0,1-.382-.171.63.63,0,0,1-.159-.417.622.622,0,0,1,.159-.415.52.52,0,0,1,.488-.162.492.492,0,0,1,.1.034.659.659,0,0,1,.093.053.632.632,0,0,1,.082.074.627.627,0,0,1,0,.832.509.509,0,0,1-.082.072.673.673,0,0,1-.093.055.693.693,0,0,1-.1.032A.511.511,0,0,1,34.423,49.38ZM18.474,53.872a.607.607,0,0,1,.03.11.633.633,0,0,1,.012.114.654.654,0,0,1-.012.116.588.588,0,0,1-.03.108.7.7,0,0,1-.049.1.809.809,0,0,1-.069.089.518.518,0,0,1-.082.072.661.661,0,0,1-.093.055.629.629,0,0,1-.1.032.493.493,0,0,1-.105.011.511.511,0,0,1-.107-.011.613.613,0,0,1-.1-.032.591.591,0,0,1-.095-.055.528.528,0,0,1-.082-.072.641.641,0,0,1-.067-.089.7.7,0,0,1-.051-.1.785.785,0,0,1-.03-.108.651.651,0,0,1-.01-.116.63.63,0,0,1,.01-.114.811.811,0,0,1,.03-.11.8.8,0,0,1,.051-.1.546.546,0,0,1,.067-.089.517.517,0,0,1,.175-.128.536.536,0,0,1,.1-.034.5.5,0,0,1,.212,0,.49.49,0,0,1,.1.034.512.512,0,0,1,.175.128.663.663,0,0,1,.069.089A.783.783,0,0,1,18.474,53.872Zm9.284-1.452h1.548a.492.492,0,0,1,0,.98H27.758a.492.492,0,0,1,0-.98Zm-9.009-.2a.492.492,0,0,1,0,.98H17.2a.492.492,0,0,1,0-.98ZM10.671,10h6.992a.73.73,0,0,1,.478,1.226l-6.975,7.6a.662.662,0,0,1-1.144-.5L10,10.724A.7.7,0,0,1,10.671,10ZM34.339,37.121h-7a.73.73,0,0,1-.478-1.226l6.973-7.6a.662.662,0,0,1,1.144.5L35,36.4A.684.684,0,0,1,34.339,37.121Zm-23.3-6.572,17.906-19.42a3.348,3.348,0,0,1,5.013,0,4.072,4.072,0,0,1,0,5.437L16.054,35.993a3.349,3.349,0,0,1-5.013,0A4.081,4.081,0,0,1,11.04,30.549Z" transform="translate(-10 -10)" fill="#222852" fill-rule="evenodd"/>
</svg>
