<svg xmlns="http://www.w3.org/2000/svg" xmlns:xlink="http://www.w3.org/1999/xlink" width="476" height="328" viewBox="0 0 476 328">
  <defs>
    <clipPath id="clip-path">
      <rect id="Rectangle_1" data-name="Rectangle 1" width="476" height="328" transform="translate(398 856)" fill="#fff" stroke="#707070" stroke-width="1"/>
    </clipPath>
    <linearGradient id="linear-gradient" x1="0.5" y1="1" x2="0.5" gradientUnits="objectBoundingBox">
      <stop offset="0" stop-color="gray" stop-opacity="0.251"/>
      <stop offset="0.54" stop-color="gray" stop-opacity="0.122"/>
      <stop offset="1" stop-color="gray" stop-opacity="0.102"/>
    </linearGradient>
  </defs>
  <g id="Mask_Group_1" data-name="Mask Group 1" transform="translate(-398 -856)" clip-path="url(#clip-path)">
    <g id="undraw_forgot_password_gi2d" transform="translate(414.377 856.008)">
      <g id="Group_1" data-name="Group 1" opacity="0.1">
        <path id="Path_1" data-name="Path 1" d="M375.7,250.19s-31.643-4.109-8.044,47.1c0,0,21.506-9.216,22.363-30a16.541,16.541,0,0,0-13.87-17.038Z" transform="translate(-20.787 -17.817)" fill="#23a455"/>
        <path id="Path_2" data-name="Path 2" d="M376.167,250.113s7.163,28.556-8.484,47.186" transform="translate(-20.787 -17.817)" fill="none" stroke="#535461" stroke-miterlimit="10" stroke-width="0.404"/>
        <path id="Path_3" data-name="Path 3" d="M367.255,299.937s11.393-28.079,32.669-38.5A45.917,45.917,0,0,0,420.775,241.2,77.215,77.215,0,0,0,426,228.082" transform="translate(-20.787 -17.817)" fill="none" stroke="#535461" stroke-miterlimit="10" stroke-width="0.808"/>
        <path id="Path_4" data-name="Path 4" d="M439.368,221.444c-2.218,2.788-13.7,6.868-13.7,6.868s1.382-12.121,3.6-14.888a6.464,6.464,0,1,1,10.1,8.032Z" transform="translate(-20.787 -17.817)" fill="#23a455"/>
        <path id="Path_5" data-name="Path 5" d="M435.429,243.523c-3.378,1.135-15.224-1.689-15.224-1.689s7.737-9.406,11.115-10.541a6.464,6.464,0,1,1,4.109,12.23Z" transform="translate(-20.787 -17.817)" fill="#23a455"/>
        <path id="Path_6" data-name="Path 6" d="M414.073,269.627c-3.487-.723-12.29-9.143-12.29-9.143s11.426-4.214,14.916-3.491a6.464,6.464,0,0,1-2.626,12.63Z" transform="translate(-20.787 -17.817)" fill="#23a455"/>
        <path id="Path_7" data-name="Path 7" d="M393.468,285.74c-3.559-.125-13.66-6.933-13.66-6.933s10.553-6.093,14.112-5.963a6.464,6.464,0,0,1-.453,12.892Z" transform="translate(-20.787 -17.817)" fill="#23a455"/>
        <path id="Path_8" data-name="Path 8" d="M409.176,233.928c.457,3.535,8.169,12.957,8.169,12.957s5.079-11.07,4.626-14.605a6.464,6.464,0,1,0-12.8,1.648Z" transform="translate(-20.787 -17.817)" fill="#23a455"/>
        <path id="Path_9" data-name="Path 9" d="M385.314,253.095c1.491,3.232,11.672,9.919,11.672,9.919s1.535-12.084.044-15.316a6.464,6.464,0,1,0-11.717,5.4Z" transform="translate(-20.787 -17.817)" fill="#23a455"/>
        <path id="Path_10" data-name="Path 10" d="M364.677,274.888c.921,3.442,9.83,11.749,9.83,11.749s3.555-11.648,2.63-15.09a6.464,6.464,0,1,0-12.46,3.341Z" transform="translate(-20.787 -17.817)" fill="#23a455"/>
        <path id="Path_11" data-name="Path 11" d="M439.368,221.444c-2.218,2.788-13.7,6.868-13.7,6.868s1.382-12.121,3.6-14.888a6.464,6.464,0,1,1,10.1,8.032Z" transform="translate(-20.787 -17.817)" opacity="0.25"/>
        <path id="Path_12" data-name="Path 12" d="M435.429,243.523c-3.378,1.135-15.224-1.689-15.224-1.689s7.737-9.406,11.115-10.541a6.464,6.464,0,1,1,4.109,12.23Z" transform="translate(-20.787 -17.817)" opacity="0.25"/>
        <path id="Path_13" data-name="Path 13" d="M414.073,269.627c-3.487-.723-12.29-9.143-12.29-9.143s11.426-4.214,14.916-3.491a6.464,6.464,0,0,1-2.626,12.63Z" transform="translate(-20.787 -17.817)" opacity="0.25"/>
        <path id="Path_14" data-name="Path 14" d="M393.468,285.74c-3.559-.125-13.66-6.933-13.66-6.933s10.553-6.093,14.112-5.963a6.464,6.464,0,0,1-.453,12.892Z" transform="translate(-20.787 -17.817)" opacity="0.25"/>
        <path id="Path_15" data-name="Path 15" d="M409.176,233.928c.457,3.535,8.169,12.957,8.169,12.957s5.079-11.07,4.626-14.605a6.464,6.464,0,1,0-12.8,1.648Z" transform="translate(-20.787 -17.817)" opacity="0.25"/>
        <path id="Path_16" data-name="Path 16" d="M385.314,253.095c1.491,3.232,11.672,9.919,11.672,9.919s1.535-12.084.044-15.316a6.464,6.464,0,1,0-11.717,5.4Z" transform="translate(-20.787 -17.817)" opacity="0.25"/>
        <path id="Path_17" data-name="Path 17" d="M364.677,274.888c.921,3.442,9.83,11.749,9.83,11.749s3.555-11.648,2.63-15.09a6.464,6.464,0,1,0-12.46,3.341Z" transform="translate(-20.787 -17.817)" opacity="0.25"/>
        <path id="Path_18" data-name="Path 18" d="M382.43,312.712s11.393-28.079,32.669-38.5a45.917,45.917,0,0,0,20.839-20.245,77.214,77.214,0,0,0,5.224-13.119" transform="translate(-20.787 -17.817)" fill="none" stroke="#535461" stroke-miterlimit="10" stroke-width="0.808"/>
        <path id="Path_19" data-name="Path 19" d="M454.523,234.211c-2.218,2.788-13.7,6.868-13.7,6.868s1.382-12.121,3.6-14.888a6.464,6.464,0,0,1,10.1,8.032Z" transform="translate(-20.787 -17.817)" fill="#23a455"/>
        <path id="Path_20" data-name="Path 20" d="M450.592,256.29c-3.378,1.135-15.224-1.689-15.224-1.689s7.737-9.406,11.115-10.541a6.464,6.464,0,0,1,4.109,12.23Z" transform="translate(-20.787 -17.817)" fill="#23a455"/>
        <path id="Path_21" data-name="Path 21" d="M429.236,282.41c-3.487-.723-12.29-9.143-12.29-9.143s11.426-4.214,14.916-3.491a6.464,6.464,0,0,1-2.626,12.63Z" transform="translate(-20.787 -17.817)" fill="#23a455"/>
        <path id="Path_22" data-name="Path 22" d="M408.626,298.5c-3.559-.125-13.66-6.933-13.66-6.933s10.553-6.085,14.112-5.959a6.464,6.464,0,0,1-.452,12.892Z" transform="translate(-20.787 -17.817)" fill="#23a455"/>
        <path id="Path_23" data-name="Path 23" d="M424.335,246.711c.457,3.535,8.169,12.957,8.169,12.957s5.079-11.07,4.626-14.605a6.464,6.464,0,1,0-12.8,1.648Z" transform="translate(-20.787 -17.817)" fill="#23a455"/>
        <path id="Path_24" data-name="Path 24" d="M400.477,265.846c1.491,3.232,11.672,9.919,11.672,9.919s1.535-12.084.044-15.316a6.464,6.464,0,0,0-11.717,5.4Z" transform="translate(-20.787 -17.817)" fill="#23a455"/>
        <path id="Path_25" data-name="Path 25" d="M379.84,287.663c.921,3.442,9.83,11.749,9.83,11.749s3.555-11.648,2.63-15.09a6.464,6.464,0,0,0-12.46,3.341Z" transform="translate(-20.787 -17.817)" fill="#23a455"/>
      </g>
      <path id="Path_26" data-name="Path 26" d="M25.575,191.534c7.014,29.978,21.862,55.892,45.327,68.453,48.765,26.1,158.744,12.642,240.825-2.828A187.954,187.954,0,0,0,418.6,196.071Z" transform="translate(-20.787 -17.817)" fill="#23a455" opacity="0.1"/>
      <path id="Path_27" data-name="Path 27" d="M456,50.426H410.962a3.893,3.893,0,0,1,0-7.785h7.785a3.893,3.893,0,0,1,0-7.785h-5.559a3.893,3.893,0,0,1,0-7.785h23.506a62.2,62.2,0,0,0-18.334-5.054c-64.094-8.234-86.978-2.788-95.05,2.828a89.759,89.759,0,0,1-32.944,14.44c-39.55,8.149-113.506,17.967-180.537-3.151-33.316-10.5-58.078,7.24-72.918,36.879h426.9a69.56,69.56,0,0,0-5.289-23.53A3.87,3.87,0,0,1,456,50.426Z" transform="translate(-20.787 -17.817)" fill="#23a455" opacity="0.1"/>
      <path id="Path_28" data-name="Path 28" d="M21.752,128.963a198.4,198.4,0,0,0,1.749,52.3l395.407,14.46a185.85,185.85,0,0,0,27.473-41.9Zm156.388,37.311h-7.785a3.893,3.893,0,1,1,0,7.785H125.319a3.893,3.893,0,0,1,0-7.785H133.1a3.893,3.893,0,1,1,0-7.785h-5.559a3.893,3.893,0,1,1,0-7.785h45.036a3.893,3.893,0,0,1,0,7.785h5.559a3.893,3.893,0,0,1,0,7.785Z" transform="translate(-20.787 -17.817)" fill="#23a455" opacity="0.1"/>
      <path id="Path_29" data-name="Path 29" d="M463.836,73.281,32.144,83.786a172.479,172.479,0,0,0-10.327,44.576H456.273a184.425,184.425,0,0,0,6.274-28.415A134.635,134.635,0,0,0,463.836,73.281Zm-354.379,34.41h-7.785a3.893,3.893,0,1,1,0,7.785H56.636a3.893,3.893,0,1,1,0-7.785h7.785a3.893,3.893,0,0,1,0-7.785H58.862a3.893,3.893,0,1,1,0-7.785H103.9a3.893,3.893,0,0,1,0,7.785h5.559a3.893,3.893,0,1,1,0,7.785Z" transform="translate(-20.787 -17.817)" fill="#23a455" opacity="0.1"/>
      <path id="Path_30" data-name="Path 30" d="M400.033,345.6s-18-98.743-52.333-114.766c-29.09-13.587-60.547-22.746-69.492-25.231a38.63,38.63,0,0,0-4.61-6.016c-12.226-12.763-19.571-12.525-20.759-12.367a62.155,62.155,0,0,1-1.212-7.676c-.036-.4-.073-.78-.105-1.18l.105-.053q-.109-1.145-.194-2.364A60.845,60.845,0,0,0,265.086,166c.053.174.1.347.154.525q13.216-11.171,25.886-22.948c2.424-2.267,4.969-4.727,5.794-7.923a11.627,11.627,0,0,0,.3-3.361c.109-2.424-.465-4.9-.562-7.357a8.422,8.422,0,0,1,.1-1.164c.566-4.02,3.361-7.321,5.656-10.694a50.43,50.43,0,0,0,8.577-28.871,48.886,48.886,0,0,0-2.02-14.545c-1.79-5.988-5.515-12.278-11.717-13.587-2.4-.505-4.893-.19-7.341-.347-10.137-.646-17.724-8.888-25.809-14.929A68.122,68.122,0,0,0,230.336,27.7a27.056,27.056,0,0,0-11.393.78c-8.157,2.715-13.11,11.1-20.969,14.545-5.81,2.561-12.525,2.145-18.585,4.068-9.022,2.869-16.678,12.121-16.88,21.627v1.232c-.1,4.8,1.616,9.7,1.753,14.613q0,.667.02,1.337a43.979,43.979,0,0,1-2.614,15.623c-1.042,2.687-2.384,5.8-2.166,8.484a5.679,5.679,0,0,0,1.341,4.444l1.951-1.721a59.009,59.009,0,0,0,20.3,56.094q.113,1.814.218,3.887c.307,5.988.549,13.5.481,21.684l-19.054,17.514L115.76,234.13s-44.8,9.462-35.15,72.4L85.216,345.6h40.9l-.093.206h60.7l.036-.206H331.192l-.028.206h5.656V345.6ZM253.2,188.221a41.985,41.985,0,0,1,2.909,8,32.772,32.772,0,0,1-3.139-8.436l.061.109Zm-69.419,8.08q0,1.155-.04,2.331l-.1.137a19.8,19.8,0,0,1,.137-2.489Z" transform="translate(-20.787 -17.817)" fill="url(#linear-gradient)"/>
      <path id="Path_31" data-name="Path 31" d="M269.179,206.212,261.1,283.38l-43.23,13.737s-56.159-10.5-41.614-40.806c10.347-21.554,10.06-60.074,9.034-80.517-.4-8.3-.953-13.62-.953-13.62s73.532-64.239,67.471-6.464a136.723,136.723,0,0,0-.59,26.77C253.943,210.939,269.179,206.212,269.179,206.212Z" transform="translate(-20.787 -17.817)" fill="#fdc2cc"/>
      <path id="Path_32" data-name="Path 32" d="M269.179,206.212,261.1,283.38l-43.23,13.737s-56.159-10.5-41.614-40.806c10.347-21.554,10.06-60.074,9.034-80.517-.4-8.3-.953-13.62-.953-13.62s73.532-64.239,67.471-6.464a136.723,136.723,0,0,0-.59,26.77C253.943,210.939,269.179,206.212,269.179,206.212Z" transform="translate(-20.787 -17.817)" opacity="0.03"/>
      <path id="Path_33" data-name="Path 33" d="M251.806,154.5a136.723,136.723,0,0,0-.59,26.77,58.611,58.611,0,0,1-65.928-6.687c-.4-8.3-.954-13.62-.954-13.62S257.866,96.723,251.806,154.5Z" transform="translate(-20.787 -17.817)" opacity="0.1"/>
      <circle id="Ellipse_1" data-name="Ellipse 1" cx="58.583" cy="58.583" r="58.583" transform="translate(143.751 51.032)" fill="#fdc2cc"/>
      <circle id="Ellipse_2" data-name="Ellipse 2" cx="58.583" cy="58.583" r="58.583" transform="translate(143.751 51.032)" opacity="0.03"/>
      <path id="Path_34" data-name="Path 34" d="M394.425,345.6H90.6l-4.444-38.382C76.865,245.4,120.1,236.11,120.1,236.11l47.27-21.817,18.787-17.575c-6.06,23.029,39.8,70.906,39.8,70.906h0a10.867,10.867,0,0,0,.836-.869c1.236-1.349,4.19-4.727,11.107-13.106,2.473-3,5.458-6.642,9.054-11.062,17.292-21.251,8.42-46.361,5.769-51.553l-.166-.323c-.1-.186-.178-.335-.238-.44a.657.657,0,0,0-.061-.109.644.644,0,0,1-.044-.081l22.221,17.373s.852.226,2.424.671c8.646,2.424,39.02,11.438,67.067,24.783C377.052,248.634,394.425,345.6,394.425,345.6Z" transform="translate(-20.787 -17.817)" fill="#23a455"/>
      <path id="Path_35" data-name="Path 35" d="M291,253.079c-3.636-3.636-28.281-8.08-28.281-8.08.808,9.7-29.089,24.645-29.089,24.645l2.222,75.956H221.512l-2.424-68.279,6.868-9.7h0l.836-.869A133.331,133.331,0,0,0,237.9,253.648c2.473-3,5.458-6.642,9.054-11.062,17.292-21.251,8.42-46.361,5.769-51.553l-.166-.323c-.1-.19-.174-.335-.238-.44a.657.657,0,0,0-.061-.109.642.642,0,0,1-.044-.081h0s7.272-1.616,20.2,12.121a37.873,37.873,0,0,1,4.444,5.923C287.364,224.979,294.2,256.282,291,253.079Z" transform="translate(-20.787 -17.817)" fill="#23a455"/>
      <path id="Path_36" data-name="Path 36" d="M291,253.079c-3.636-3.636-28.281-8.08-28.281-8.08.808,9.7-29.089,24.645-29.089,24.645l2.222,75.956H221.512l-2.424-68.279,6.868-9.7h0l.836-.869A133.331,133.331,0,0,0,237.9,253.648c2.473-3,5.458-6.642,9.054-11.062,17.292-21.251,8.42-46.361,5.769-51.553l-.166-.323c-.1-.19-.174-.335-.238-.44a.657.657,0,0,0-.061-.109.642.642,0,0,1-.044-.081h0s7.272-1.616,20.2,12.121a37.873,37.873,0,0,1,4.444,5.923C287.364,224.979,294.2,256.282,291,253.079Z" transform="translate(-20.787 -17.817)" opacity="0.1"/>
      <path id="Path_37" data-name="Path 37" d="M126.559,284.188s18.989,38.786,20,61.613" transform="translate(-20.787 -17.817)" opacity="0.1"/>
      <path id="Path_38" data-name="Path 38" d="M312.631,288.6l-5.454,39.392h5.454Z" opacity="0.1"/>
      <path id="Path_39" data-name="Path 39" d="M130.8,345.8l30.1-68.481s8.484-16.161,10.5-32.322,12.929-41.614,12.929-41.614,27.069-34.342,39.594-29.494S213.02,196.92,213.02,196.92s34.342,13.333,10.909,52.927-23.837,32.322-23.837,32.322L188.577,345.8Z" transform="translate(-20.787 -17.817)" opacity="0.1"/>
      <path id="Path_40" data-name="Path 40" d="M129.994,345.8l30.1-68.481s8.484-16.161,10.5-32.322c1.285-10.274,6.161-24.306,9.543-33.166a50.851,50.851,0,0,1,9.583-15.757c8.751-9.793,24.645-25.587,33.4-22.193,12.525,4.848-10.909,23.029-10.909,23.029s34.342,13.333,10.909,52.927-23.837,32.322-23.837,32.322l-11.515,63.633Z" transform="translate(-20.787 -17.817)" fill="#fdc2cc"/>
      <circle id="Ellipse_3" data-name="Ellipse 3" cx="1.212" cy="1.212" r="1.212" transform="translate(219.1 75.475)" fill="#fff" opacity="0.15"/>
      <circle id="Ellipse_4" data-name="Ellipse 4" cx="1.212" cy="1.212" r="1.212" transform="translate(213.444 77.899)" fill="#fff" opacity="0.15"/>
      <path id="Path_41" data-name="Path 41" d="M181.5,53.605c5.846-1.891,12.335-1.483,17.943-4,7.583-3.4,12.363-11.636,20.233-14.3a25.982,25.982,0,0,1,10.993-.764A65.076,65.076,0,0,1,263.26,47.42c7.8,5.935,15.122,14.028,24.9,14.662,2.363.154,4.767-.158,7.082.339,6,1.285,9.587,7.462,11.313,13.333a50.2,50.2,0,0,1-6.327,41.453c-2.214,3.313-4.913,6.557-5.458,10.5-.533,3.871,1.115,7.882.154,11.672-.808,3.139-3.232,5.555-5.592,7.781q-12.222,11.559-24.981,22.524c-4.42-14.044,2.065-29.166,1.054-43.852-.4-5.721-2.424-11.967-7.47-14.666-4.723-2.521-10.759-1.212-15.539-3.636-5.333-2.687-7.523-9.05-11.555-13.454-6.868-7.515-18.791-8.484-28.395-5.091S185,99.365,177.4,106.173L163.6,118.556c-2.695-3.038-.65-7.7.808-11.5,2.174-5.693,2.65-11.83,2.5-17.874-.117-4.848-1.79-9.636-1.693-14.355C165.41,65.52,172.8,56.421,181.5,53.605Z" transform="translate(-20.787 -17.817)" opacity="0.1"/>
      <path id="Path_42" data-name="Path 42" d="M181.5,52.393c5.846-1.891,12.335-1.483,17.943-4,7.583-3.4,12.363-11.636,20.233-14.3a25.982,25.982,0,0,1,10.993-.764A65.076,65.076,0,0,1,263.26,46.208c7.8,5.935,15.122,14.028,24.9,14.662,2.363.154,4.767-.158,7.082.339,6,1.285,9.587,7.462,11.313,13.333a50.2,50.2,0,0,1-6.327,41.453c-2.214,3.313-4.913,6.557-5.458,10.5-.533,3.871,1.115,7.882.154,11.672-.808,3.139-3.232,5.555-5.592,7.781q-12.222,11.559-24.981,22.524c-4.42-14.044,2.065-29.166,1.054-43.852-.4-5.721-2.424-11.967-7.47-14.666-4.723-2.521-10.759-1.212-15.539-3.636-5.333-2.687-7.523-9.05-11.555-13.454-6.868-7.515-18.791-8.484-28.395-5.091S185,98.153,177.4,104.961L163.6,117.344c-2.695-3.038-.65-7.7.808-11.5,2.174-5.693,2.65-11.83,2.5-17.874-.117-4.848-1.79-9.636-1.693-14.355C165.41,64.308,172.8,55.209,181.5,52.393Z" transform="translate(-20.787 -17.817)" fill="#865a61"/>
    </g>
  </g>
</svg>
