<svg xmlns="http://www.w3.org/2000/svg" xmlns:xlink="http://www.w3.org/1999/xlink" width="572" height="375" viewBox="0 0 572 375">
  <defs>
    <clipPath id="clip-path">
      <rect id="Rectangle_1" data-name="Rectangle 1" width="572" height="375" transform="translate(862 1271)" fill="#fff"/>
    </clipPath>
  </defs>
  <g id="Mask_Group_1" data-name="Mask Group 1" transform="translate(-862 -1271)" clip-path="url(#clip-path)">
    <g id="undraw_online_ad_re_ol62" transform="translate(862 1301.175)">
      <path id="Path_765" data-name="Path 765" d="M579.006,252.118H438.7v-3.329h-63.62v3.329H234.2c-5.242,0-9.491,4.892-9.491,10.927h0V484.234c0,6.035,4.249,10.927,9.491,10.927H579.006c5.242,0,9.491-4.892,9.491-10.927V263.044c0-6.033-4.249-10.926-9.49-10.926Z" transform="translate(-132.053 -204.787)" fill="#3f3d56"/>
      <rect id="Rectangle_125" data-name="Rectangle 125" width="338.34" height="219.738" transform="translate(105.379 66.64)" fill="#e6e6e6"/>
      <rect id="Rectangle_130" data-name="Rectangle 130" width="309.758" height="189.935" transform="translate(119.727 78.261)" fill="#fff"/>
      <ellipse id="Ellipse_120" data-name="Ellipse 120" cx="3.47" cy="3.995" rx="3.47" ry="3.995" transform="translate(270.789 52.658)" fill="#23a455"/>
      <path id="Path_766" data-name="Path 766" d="M587.489,604.673h-33.02v-2.739a.511.511,0,0,0-.472-.543H542.676a.511.511,0,0,0-.472.543h0v2.739h-7.075v-2.739a.511.511,0,0,0-.472-.543H523.336a.511.511,0,0,0-.472.543h0v2.739h-7.075v-2.739a.511.511,0,0,0-.472-.543H504a.511.511,0,0,0-.472.543h0v2.739h-7.075v-2.739a.511.511,0,0,0-.472-.543H484.656a.511.511,0,0,0-.472.543h0v2.739h-7.076v-2.739a.511.511,0,0,0-.472-.543H465.316a.511.511,0,0,0-.472.543h0v2.739h-7.076v-2.739a.511.511,0,0,0-.472-.543H445.977a.511.511,0,0,0-.472.543h0v2.739h-7.078v-2.739a.511.511,0,0,0-.472-.543H349.274a.511.511,0,0,0-.472.543h0v2.739h-7.075v-2.739a.511.511,0,0,0-.472-.543H329.934a.511.511,0,0,0-.472.543h0v2.739h-7.075v-2.739a.511.511,0,0,0-.472-.543H310.594a.511.511,0,0,0-.472.543h0v2.739h-7.076v-2.739a.511.511,0,0,0-.472-.543H291.254a.511.511,0,0,0-.472.543h0v2.739h-7.074v-2.739a.511.511,0,0,0-.472-.543H271.914a.511.511,0,0,0-.472.543h0v2.739h-7.075v-2.739a.511.511,0,0,0-.472-.543H252.574a.511.511,0,0,0-.472.543h0v2.739h-7.075v-2.739a.511.511,0,0,0-.472-.543H233.231a.511.511,0,0,0-.472.543h0v2.739h-21.7c-6.253,0-11.321,5.836-11.321,13.034V623.6c0,7.2,5.069,13.034,11.321,13.034H587.489c6.252,0,11.321-5.835,11.321-13.034v-5.893c0-7.2-5.069-13.034-11.321-13.034Z" transform="translate(-121.546 -322.29)" fill="#3f3d56"/>
      <rect id="Rectangle_126" data-name="Rectangle 126" width="136.977" height="165.775" transform="translate(206.118 91.582)" fill="#e6e6e6"/>
      <rect id="Rectangle_128" data-name="Rectangle 128" width="572.177" height="1.242" transform="translate(0 313.791)" fill="#e6e6e6"/>
      <path id="Path_776" data-name="Path 776" d="M942.29,582.849c7.753,9.578,8.153,23.656,8.153,23.656s-12.169-1.452-19.922-11.029-8.153-23.656-8.153-23.656S934.535,573.272,942.29,582.849Z" transform="translate(-425.68 -312.436)" fill="#23a455"/>
      <path id="Path_777" data-name="Path 777" d="M983.972,599.321c-8.319,8.926-20.547,9.387-20.547,9.387s1.261-14.01,9.58-22.936,20.547-9.387,20.547-9.387S992.293,590.4,983.972,599.321Z" transform="translate(-442.96 -313.957)" fill="#23a455"/>
      <path id="Path_778" data-name="Path 778" d="M965.984,641.937h-30.6a3.121,3.121,0,0,1-2.815-2.027l-6.662-15.766a4.078,4.078,0,0,1,.16-3.488,3.058,3.058,0,0,1,2.655-1.691h43.922a3.058,3.058,0,0,1,2.655,1.691,4.079,4.079,0,0,1,.16,3.488L968.8,639.911a3.122,3.122,0,0,1-2.815,2.027Z" transform="translate(-427.038 -328.147)" fill="#e5e5e5"/>
      <path id="Path_779" data-name="Path 779" d="M107,582.849c7.753,9.578,8.153,23.656,8.153,23.656s-12.169-1.452-19.922-11.029-8.153-23.656-8.153-23.656S99.251,573.272,107,582.849Z" transform="translate(-74.13 -312.436)" fill="#e5e5e5"/>
      <path id="Path_780" data-name="Path 780" d="M122.32,641.937h-30.6a3.121,3.121,0,0,1-2.814-2.027l-6.662-15.766a4.078,4.078,0,0,1,.16-3.488,3.058,3.058,0,0,1,2.655-1.691h43.922a3.058,3.058,0,0,1,2.655,1.691,4.078,4.078,0,0,1,.16,3.488l-6.662,15.767a3.121,3.121,0,0,1-2.815,2.027Z" transform="translate(-71.962 -328.147)" fill="#e5e5e5"/>
      <ellipse id="Ellipse_127" data-name="Ellipse 127" cx="18.205" cy="20.959" rx="18.205" ry="20.959" transform="translate(272.93 96.592)" fill="#a0616a"/>
      <path id="Path_803" data-name="Path 803" d="M495.1,513.093l11.756-85.208c1.264-9.165,5.891-17.261,12.7-22.225a24.94,24.94,0,0,1,22.881-3.716h0c13.856,4.614,22.394,20.6,19.717,36.918l-12.3,76.094Z" transform="translate(-245.856 -255.393)" fill="#23a455"/>
      <path id="Path_804" data-name="Path 804" d="M567.642,572.082a8.84,8.84,0,0,0,3.3-6.189,9.419,9.419,0,0,0-2-6.885l12.153-27.095L567.4,533.6l-9.442,25.472a9.628,9.628,0,0,0-.168,11.445,6.825,6.825,0,0,0,9.849,1.57Z" transform="translate(-271.481 -299.138)" fill="#a0616a"/>
      <path id="Path_805" data-name="Path 805" d="M575.14,517.2a3.177,3.177,0,0,1-1.8-.982l-4.65-4.947a4.272,4.272,0,0,1-.809-4.313l9.293-25.36-1.319-50.108c.8-6.769,6.219-11.508,12.1-10.585s10,7.16,9.194,13.929h0l2.254,31.5a44,44,0,0,1-6.625,26.792L578.287,515.68a3.267,3.267,0,0,1-2.368,1.539A2.873,2.873,0,0,1,575.14,517.2Z" transform="translate(-276.377 -262.105)" fill="#23a455"/>
      <path id="Path_806" data-name="Path 806" d="M386.314,336.859a8.629,8.629,0,0,0,3.664,5.91,6.59,6.59,0,0,0,6.288.56L413.2,366.777l3.991-15.166L400.5,331.669c-1.576-3.968-5.476-5.957-9.087-4.636s-5.8,5.538-5.1,9.825Z" transform="translate(-200.014 -230.726)" fill="#a0616a"/>
      <path id="Path_807" data-name="Path 807" d="M408.969,354.12a3.549,3.549,0,0,1,1.487-1.524l5.77-3a3.034,3.034,0,0,1,3.765.824l16.661,19.74L477.245,388.3c5.1,3.49,6.78,11.08,3.749,16.954s-9.624,7.806-14.726,4.316h0L440.2,399.676a35.794,35.794,0,0,1-18.847-17.47l-12.391-24.158a4.359,4.359,0,0,1-.308-3.111,4.107,4.107,0,0,1,.32-.817Z" transform="translate(-209.405 -238.268)" fill="#23a455"/>
      <path id="Path_808" data-name="Path 808" d="M582.466,468.1l-.741,27.307-13.654,27.319,11.4-30.442Z" transform="translate(-276.566 -277.871)" opacity="0.1"/>
      <path id="Path_696" data-name="Path 696" d="M540.317,333.547c1.878,2.559,5.055,3.28,7.987,3.576a65.606,65.606,0,0,0,20.427-1.92c.415,4.634-.717,9.629,1.653,13.441A71.152,71.152,0,0,0,572.31,334.5a15.457,15.457,0,0,0-.681-6.059c-.724-1.884-2.3-3.483-4.123-3.5a9.688,9.688,0,0,1,4.609-2.269l-5.76-3.332,1.479-1.748-10.427-.734,3.02-2.209a56.961,56.961,0,0,0-13.72-.5,10.641,10.641,0,0,0-6.068,1.942c-1.721,1.417-2.716,4.234-1.647,6.316a8.279,8.279,0,0,0-6.07,5.545,16.947,16.947,0,0,0-.461,7.116,56.906,56.906,0,0,0,2.3,11.188" transform="translate(-261.511 -226.501)" fill="#2f2e41"/>
      <path id="Path_138" data-name="Path 138" d="M550.26,237.336,384.379,281.427a3.172,3.172,0,0,1-3.781-2.72l-9.5-47.374a3.682,3.682,0,0,1,2.363-4.353l165.882-44.092a3.172,3.172,0,0,1,3.781,2.72l9.5,47.374a3.682,3.682,0,0,1-2.363,4.353Z" transform="translate(-193.631 -182.795)" fill="#fff"/>
      <path id="Path_138-2" data-name="Path 138" d="M550.26,237.336,384.379,281.427a3.172,3.172,0,0,1-3.781-2.72l-9.5-47.374a3.682,3.682,0,0,1,2.363-4.353l165.882-44.092a3.172,3.172,0,0,1,3.781,2.72l9.5,47.374a3.682,3.682,0,0,1-2.363,4.353Zm-176.516-8.941a2.209,2.209,0,0,0-1.418,2.612l9.5,47.374a1.9,1.9,0,0,0,2.269,1.632l165.882-44.092a2.208,2.208,0,0,0,1.418-2.612l-9.5-47.375a1.9,1.9,0,0,0-2.269-1.632Z" transform="translate(-193.631 -182.795)" fill="#e6e6e6"/>
      <path id="Path_139" data-name="Path 139" d="M473.908,237.873a2.5,2.5,0,0,0-1.609,2.952,2.152,2.152,0,0,0,2.564,1.852l.007,0,98.317-26.133a2.5,2.5,0,0,0,1.6-2.955,2.151,2.151,0,0,0-2.567-1.847Z" transform="translate(-236.235 -192.42)" fill="#e6e6e6"/>
      <path id="Path_140" data-name="Path 140" d="M478.9,266.921a2.5,2.5,0,0,0-1.609,2.952,2.152,2.152,0,0,0,2.564,1.852l.007,0,42.306-11.245a2.5,2.5,0,0,0,1.609-2.952,2.152,2.152,0,0,0-2.564-1.852l-.007,0Z" transform="translate(-238.335 -207.061)" fill="#e6e6e6"/>
      <g id="Group_45" data-name="Group 45" transform="translate(197.952 47.813)">
        <ellipse id="Ellipse_18" data-name="Ellipse 18" cx="12.842" cy="14.786" rx="12.842" ry="14.786" fill="#23a455"/>
        <path id="Path_395" data-name="Path 395" d="M422.542,280.212a1.749,1.749,0,0,1-1.255-.137l-.025-.013-5.167-2.7a2.461,2.461,0,0,1-.995-3.056,1.905,1.905,0,0,1,2.654-1.145l3.348,1.755,4.7-11.884a1.9,1.9,0,0,1,2.652-1.143h0l-.028.078.03-.078a2.462,2.462,0,0,1,.993,3.054l-5.525,13.979a2.091,2.091,0,0,1-1.377,1.289Z" transform="translate(-410.061 -256.897)" fill="#fff"/>
      </g>
    </g>
  </g>
</svg>
