<svg xmlns="http://www.w3.org/2000/svg" xmlns:xlink="http://www.w3.org/1999/xlink" width="500" height="510" viewBox="0 0 500 510">
  <defs>
    <clipPath id="clip-path">
      <rect id="Rectangle_1" data-name="Rectangle 1" width="500" height="510" transform="translate(146 133)" fill="#fff" stroke="#707070" stroke-width="1"/>
    </clipPath>
    <linearGradient id="linear-gradient" y1="0.5" x2="1" y2="0.5" gradientUnits="objectBoundingBox">
      <stop offset="0" stop-color="gray" stop-opacity="0.251"/>
      <stop offset="0.54" stop-color="gray" stop-opacity="0.122"/>
      <stop offset="1" stop-color="gray" stop-opacity="0.102"/>
    </linearGradient>
  </defs>
  <g id="Mask_Group_1" data-name="Mask Group 1" transform="translate(-146 -133)" clip-path="url(#clip-path)">
    <g id="undraw_authentication_fsn5" transform="translate(146 215.421)">
      <path id="Path_1" data-name="Path 1" d="M290.064,67.344c-32.049.043-62.9-9.042-92.4-19.135S138.873,26.814,107.42,22.025c-20.229-3.078-43.231-2.8-59.043,8.382C33.155,41.16,28.748,58.958,26.621,75.4c-1.6,12.369-2.337,25.352,3.653,36.667,4.159,7.855,11.276,14.329,16.293,21.815,17.51,26.042,6.98,59.309-10.037,85.956-7.979,12.5-17.326,24.486-23.358,37.7S4.665,285.75,10.817,298.8c6.1,12.931,19.868,22.317,34.647,28.726,30.013,13.043,64.956,15.838,98.96,16.914,75.272,2.388,150.689-2.482,225.905-7.353,27.835-1.8,55.794-3.614,83.054-8.832,15.135-2.894,30.72-7.19,41.452-16.606,13.621-11.954,16.408-31.47,6.5-45.5-16.623-23.53-60.454-27.967-72.373-53.427-6.573-14.016-.9-30.09,7.443-43.6,17.9-28.988,48.723-54.953,49.242-87.375C486,59.481,469.972,37.76,446.035,28.083c-25.091-10.136-59.3-7.529-76.88,11.362C351.079,58.906,318.361,67.314,290.064,67.344Z" transform="translate(-7.25 -20.349)" fill="#23a455" stroke="#707070" stroke-width="0.429" opacity="0.1"/>
      <path id="Path_2" data-name="Path 2" d="M432.8,297.048s-5.269-3.477-10.492-1c0,0,1.608,3.1,8.219,2.8Z" transform="translate(-7.25 -20.349)" fill="#23a455" stroke="#707070" stroke-width="0.429"/>
      <path id="Path_3" data-name="Path 3" d="M433.468,297.232s1.6,6.105-2.418,10.26c0,0-2.418-2.517,0-8.682Z" transform="translate(-7.25 -20.349)" fill="#23a455" stroke="#707070" stroke-width="0.429"/>
      <path id="Path_4" data-name="Path 4" d="M440.02,291.371s-.39-5.192-12.117-3.469c0,0-.056,3.349,4.06,4.935S437.966,293.086,440.02,291.371Z" transform="translate(-7.25 -20.349)" fill="#23a455" stroke="#707070" stroke-width="0.429"/>
      <path id="Path_5" data-name="Path 5" d="M440.757,291.337s4.956,1.591.536,12.588c0,0-3.271-.729-3.859-5.106S438.588,292.932,440.757,291.337Z" transform="translate(-7.25 -20.349)" fill="#23a455" stroke="#707070" stroke-width="0.429"/>
      <path id="Path_6" data-name="Path 6" d="M447.377,283.971s.673-8.545-11.31-7.67c0,0-.858,7.718,9.2,9.724Z" transform="translate(-7.25 -20.349)" fill="#23a455" stroke="#707070" stroke-width="0.429"/>
      <path id="Path_7" data-name="Path 7" d="M455.3,274.324s-1.642-9.686-13.621-6.8c0,0-.043,8.374,11.666,9.107Z" transform="translate(-7.25 -20.349)" fill="#23a455" stroke="#707070" stroke-width="0.429"/>
      <path id="Path_8" data-name="Path 8" d="M461.084,264.351s-2.753-9.433-14.62-6.611c0,0,2.825,8.485,13.832,8.352Z" transform="translate(-7.25 -20.349)" fill="#23a455" stroke="#707070" stroke-width="0.429"/>
      <path id="Path_9" data-name="Path 9" d="M466.581,254.61s-2.688-9.788-14.149-6.86c0,0,3.824,9.3,13.39,8.515Z" transform="translate(-7.25 -20.349)" fill="#23a455" stroke="#707070" stroke-width="0.429"/>
      <path id="Path_10" data-name="Path 10" d="M470.122,245.358s-2.067-11.971-12.751-9.321c0,0,3.1,10.89,11.966,11.066Z" transform="translate(-7.25 -20.349)" fill="#23a455" stroke="#707070" stroke-width="0.429"/>
      <path id="Path_11" data-name="Path 11" d="M473.445,234.18s-2.483-12.065-13.291-8.575c0,0,4.236,11.4,12.524,10.226Z" transform="translate(-7.25 -20.349)" fill="#23a455" stroke="#707070" stroke-width="0.429"/>
      <path id="Path_12" data-name="Path 12" d="M475.486,223.779s-3.94-12.069-12.3-11.744c0,0,4.026,12.747,11.6,14.149Z" transform="translate(-7.25 -20.349)" fill="#23a455" stroke="#707070" stroke-width="0.429"/>
      <path id="Path_13" data-name="Path 13" d="M476.807,213.626s-4.288-14.526-11.088-13.407c0,0,2.967,11.1,10.847,15.671Z" transform="translate(-7.25 -20.349)" fill="#23a455" stroke="#707070" stroke-width="0.429"/>
      <path id="Path_14" data-name="Path 14" d="M477.553,201.513s-4.022-12.1-10.719-12.588c0,0,2.735,11.911,10.586,15.735Z" transform="translate(-7.25 -20.349)" fill="#23a455" stroke="#707070" stroke-width="0.429"/>
      <path id="Path_15" data-name="Path 15" d="M478.363,190.212s-5.012-12.117-9.433-12.391c0,0,2.178,11.932,9,14.38Z" transform="translate(-7.25 -20.349)" fill="#23a455" stroke="#707070" stroke-width="0.429"/>
      <path id="Path_16" data-name="Path 16" d="M478.916,179.7s-3.083-13.158-7.512-14.252c0,0,.6,10.766,7.066,15.238Z" transform="translate(-7.25 -20.349)" fill="#23a455" stroke="#707070" stroke-width="0.429"/>
      <path id="Path_17" data-name="Path 17" d="M480.588,165.927s-3.241-10.492-6.83-12.091c0,0,.707,12.37,6,14.655Z" transform="translate(-7.25 -20.349)" fill="#23a455" stroke="#707070" stroke-width="0.429"/>
      <path id="Path_18" data-name="Path 18" d="M481.973,156.923l.652-18.5s-6.71,13.943-1.136,21.742Z" transform="translate(-7.25 -20.349)" fill="#23a455" stroke="#707070" stroke-width="0.429"/>
      <path id="Path_19" data-name="Path 19" d="M487.152,138.526s4.832-13.506,6-14.26c0,0-9.475,8.764-8.549,20.036Z" transform="translate(-7.25 -20.349)" fill="#23a455" stroke="#707070" stroke-width="0.429"/>
      <path id="Path_20" data-name="Path 20" d="M447.7,283.907s8.5-1.11,8.245,10.9c0,0-7.679,1.252-10.187-8.682Z" transform="translate(-7.25 -20.349)" fill="#23a455" stroke="#707070" stroke-width="0.429"/>
      <path id="Path_21" data-name="Path 21" d="M455.7,274s9.818-.03,9,12.262c0,0-8.245,1.475-10.963-9.938Z" transform="translate(-7.25 -20.349)" fill="#23a455" stroke="#707070" stroke-width="0.429"/>
      <path id="Path_22" data-name="Path 22" d="M461.179,265.145s8.914-4.18,14.616,6.611c0,0-8.232,3.481-15.405-4.866Z" transform="translate(-7.25 -20.349)" fill="#23a455" stroke="#707070" stroke-width="0.429"/>
      <path id="Path_23" data-name="Path 23" d="M466.778,254.7s9.128-4.446,14.488,6.093c0,0-9.51,3.276-15.242-4.425Z" transform="translate(-7.25 -20.349)" fill="#23a455" stroke="#707070" stroke-width="0.429"/>
      <path id="Path_24" data-name="Path 24" d="M470.007,245.619s8.785-8.391,15.8.094c0,0-8.974,6.907-16.2,1.775Z" transform="translate(-7.25 -20.349)" fill="#23a455" stroke="#707070" stroke-width="0.429"/>
      <path id="Path_25" data-name="Path 25" d="M472.948,233.893s8.837-8.575,15.791.394c0,0-9.917,7.044-16.108,1.406Z" transform="translate(-7.25 -20.349)" fill="#23a455" stroke="#707070" stroke-width="0.429"/>
      <path id="Path_26" data-name="Path 26" d="M474.6,223.436s6.809-10.719,14.826-8.326c0,0-7.066,11.349-14.749,10.843Z" transform="translate(-7.25 -20.349)" fill="#23a455" stroke="#707070" stroke-width="0.429"/>
      <path id="Path_27" data-name="Path 27" d="M476.605,213.557s6.86-13.5,13.351-11.148c0,0-4.948,10.376-13.527,13.424Z" transform="translate(-7.25 -20.349)" fill="#23a455" stroke="#707070" stroke-width="0.429"/>
      <path id="Path_28" data-name="Path 28" d="M477.081,200.81s7.053-10.624,13.66-9.325c0,0-5.767,10.775-14.346,12.4Z" transform="translate(-7.25 -20.349)" fill="#23a455" stroke="#707070" stroke-width="0.429"/>
      <path id="Path_29" data-name="Path 29" d="M477.63,189.976s5.467-11.924,9.908-12.005c0,0-2.624,11.838-9.54,14.029Z" transform="translate(-7.25 -20.349)" fill="#23a455" stroke="#707070" stroke-width="0.429"/>
      <path id="Path_30" data-name="Path 30" d="M478.7,179.441s6.075-12.074,10.642-12.1c0,0-3.108,10.324-10.44,13.158Z" transform="translate(-7.25 -20.349)" fill="#23a455" stroke="#707070" stroke-width="0.429"/>
      <path id="Path_31" data-name="Path 31" d="M479.615,166.682s4.545-9.99,8.309-11.122c0,0-2.272,12.177-7.808,13.772Z" transform="translate(-7.25 -20.349)" fill="#23a455" stroke="#707070" stroke-width="0.429"/>
      <path id="Path_32" data-name="Path 32" d="M482.513,156.559l10.157-15.474s-2.6,15.264-11.641,18.436Z" transform="translate(-7.25 -20.349)" fill="#23a455" stroke="#707070" stroke-width="0.429"/>
      <path id="Path_33" data-name="Path 33" d="M489.485,139.773s11.8-8.146,12.232-9.463c0,0-6,11.409-17.15,13.424Z" transform="translate(-7.25 -20.349)" fill="#23a455" stroke="#707070" stroke-width="0.429"/>
      <path id="Path_34" data-name="Path 34" d="M490.192,136.107s13.553-13.03,17.013-13.017c0,0-11.178.51-17.339,12.322Z" transform="translate(-7.25 -20.349)" fill="#23a455" stroke="#707070" stroke-width="0.429"/>
      <path id="Path_35" data-name="Path 35" d="M479.748,168.615l.493.064c2.547-19.933,6.26-31.728,10.453-33.173l-.163-.472C486.085,136.579,482.346,148.194,479.748,168.615Z" transform="translate(-7.25 -20.349)" fill="#444053" stroke="#707070" stroke-width="0.429"/>
      <path id="Path_36" data-name="Path 36" d="M476,216.284l.746.06c.159-1.861.279-3.764.36-5.664.712-16.5,1.814-31.65,3.263-43.008l-.429-.536c-1.453,11.383-2.868,26.99-3.58,43.514C476.279,212.537,476.159,214.432,476,216.284Z" transform="translate(-7.25 -20.349)" fill="#444053" stroke="#707070" stroke-width="0.429"/>
      <path id="Path_37" data-name="Path 37" d="M418.891,306.558c.129-.056,13.261-5.921,26.891-19.907a108.14,108.14,0,0,0,19.658-27.869c6.3-12.833,10.144-28.6,11.431-43.921l-.776.364c-2.894,34.386-18.548,57.882-30.995,70.68-13.5,13.862-26.484,19.667-26.613,19.723Z" transform="translate(-7.25 -20.349)" fill="#444053" stroke="#707070" stroke-width="0.429"/>
      <path id="Path_38" data-name="Path 38" d="M452.9,56.891H40.916a3.67,3.67,0,0,0-3.67,3.67V71.254h419.32V60.561A3.67,3.67,0,0,0,452.9,56.891Z" transform="translate(-7.25 -20.349)" fill="#3f3d56" stroke="#707070" stroke-width="0.429"/>
      <path id="Path_39" data-name="Path 39" d="M37.246,71.254V311.887a7.4,7.4,0,0,0,7.4,7.4H449.165a7.4,7.4,0,0,0,7.4-7.4V71.254Z" transform="translate(-7.25 -20.349)" fill="#fff" stroke="#707070" stroke-width="0.429"/>
      <circle id="Ellipse_1" data-name="Ellipse 1" cx="1.715" cy="1.715" r="1.715" transform="translate(34.922 41.902)" fill="#fa5959" stroke="#707070" stroke-width="0.429" opacity="0.8"/>
      <circle id="Ellipse_2" data-name="Ellipse 2" cx="1.715" cy="1.715" r="1.715" transform="translate(39.638 41.902)" fill="#fed253" stroke="#707070" stroke-width="0.429" opacity="0.8"/>
      <circle id="Ellipse_3" data-name="Ellipse 3" cx="1.715" cy="1.715" r="1.715" transform="translate(44.354 41.902)" fill="#8ccf4d" stroke="#707070" stroke-width="0.429" opacity="0.8"/>
      <rect id="Rectangle_2" data-name="Rectangle 2" width="336.999" height="148.185" transform="translate(68.973 91.028)" stroke="#707070" stroke-width="0.429" opacity="0.05"/>
      <rect id="Rectangle_3" data-name="Rectangle 3" width="331.854" height="144.918" transform="translate(71.546 92.152)" fill="#3f3d56" stroke="#707070" stroke-width="0.429"/>
      <path id="Path_40" data-name="Path 40" d="M169.263,149.8a33.014,33.014,0,1,0,33.014,33.014A33.014,33.014,0,0,0,169.263,149.8Zm5.921,33.807v15.632H163.513V183.6a9.668,9.668,0,1,1,11.671,0Z" transform="translate(-7.25 -20.349)" fill="#23a455" stroke="#707070" stroke-width="0.429"/>
      <path id="Path_41" data-name="Path 41" d="M169.263,149.8a33.014,33.014,0,1,0,33.014,33.014A33.014,33.014,0,0,0,169.263,149.8Zm5.921,33.807v15.632H163.513V183.6a9.668,9.668,0,1,1,11.671,0Z" transform="translate(-7.25 -20.349)" stroke="#707070" stroke-width="0.429" opacity="0.05"/>
      <path id="Path_42" data-name="Path 42" d="M169.263,140.365a42.446,42.446,0,1,0,42.446,42.446,42.446,42.446,0,0,0-42.446-42.446Zm7.61,43.467v20.1H161.867v-20.1a12.434,12.434,0,1,1,15.006,0Z" transform="translate(-7.25 -20.349)" fill="#23a455" stroke="#707070" stroke-width="0.429"/>
      <rect id="Rectangle_4" data-name="Rectangle 4" width="137.201" height="14.578" transform="translate(222.038 156.893)" fill="#fff" stroke="#707070" stroke-width="0.429"/>
      <rect id="Rectangle_5" data-name="Rectangle 5" width="29.584" height="14.578" transform="translate(329.655 183.476)" fill="#23a455" stroke="#707070" stroke-width="0.429"/>
      <path id="Path_43" data-name="Path 43" d="M242.794,184.312h-2.482l2.208-2.2a.219.219,0,0,0,0-.3.214.214,0,0,0-.3,0l-2.208,2.208v-2.487a.214.214,0,0,0-.214-.214.219.219,0,0,0-.214.214v2.487l-2.2-2.221a.214.214,0,0,0-.3,0,.219.219,0,0,0,0,.3l2.208,2.2h-2.487a.219.219,0,0,0-.214.214.214.214,0,0,0,.214.214h2.487l-2.208,2.208a.219.219,0,0,0,0,.3.223.223,0,0,0,.3,0l2.2-2.208v2.482a.214.214,0,1,0,.429,0v-2.482l2.208,2.208a.223.223,0,0,0,.3,0,.219.219,0,0,0,0-.3l-2.208-2.208h2.482a.208.208,0,1,0,0-.416Z" transform="translate(-7.25 -20.349)" fill="#23a455" stroke="#707070" stroke-width="0.429"/>
      <path id="Path_44" data-name="Path 44" d="M251.8,184.312h-2.482l2.208-2.2a.219.219,0,0,0,0-.3.214.214,0,0,0-.3,0l-2.208,2.208v-2.487a.214.214,0,0,0-.214-.214.219.219,0,0,0-.214.214v2.487l-2.2-2.221a.214.214,0,0,0-.3,0,.219.219,0,0,0,0,.3l2.208,2.2H245.8a.219.219,0,0,0-.214.214.214.214,0,0,0,.214.214h2.487l-2.208,2.208a.219.219,0,0,0,0,.3.223.223,0,0,0,.3,0l2.2-2.208v2.482a.214.214,0,1,0,.429,0v-2.482l2.208,2.208a.223.223,0,0,0,.3,0,.219.219,0,0,0,0-.3l-2.208-2.208H251.8a.208.208,0,1,0,0-.416Z" transform="translate(-7.25 -20.349)" fill="#23a455" stroke="#707070" stroke-width="0.429"/>
      <path id="Path_45" data-name="Path 45" d="M260.8,184.312h-2.482l2.208-2.2a.219.219,0,0,0,0-.3.214.214,0,0,0-.3,0l-2.208,2.208v-2.487a.214.214,0,0,0-.214-.214.219.219,0,0,0-.214.214v2.487l-2.2-2.221a.214.214,0,0,0-.3,0,.219.219,0,0,0,0,.3l2.208,2.2H254.8a.219.219,0,0,0-.214.214.214.214,0,0,0,.214.214h2.487l-2.208,2.208a.219.219,0,0,0,0,.3.223.223,0,0,0,.3,0l2.2-2.208v2.482a.214.214,0,1,0,.429,0v-2.482l2.208,2.208a.223.223,0,0,0,.3,0,.219.219,0,0,0,0-.3l-2.208-2.208H260.8a.208.208,0,1,0,0-.416Z" transform="translate(-7.25 -20.349)" fill="#23a455" stroke="#707070" stroke-width="0.429"/>
      <path id="Path_46" data-name="Path 46" d="M269.805,184.312h-2.482l2.208-2.2a.219.219,0,0,0,0-.3.214.214,0,0,0-.3,0l-2.208,2.208v-2.487a.214.214,0,0,0-.214-.214.219.219,0,0,0-.214.214v2.487l-2.2-2.221a.214.214,0,0,0-.3,0,.219.219,0,0,0,0,.3l2.208,2.2H263.8a.219.219,0,0,0-.214.214.214.214,0,0,0,.214.214h2.487l-2.208,2.208a.219.219,0,0,0,0,.3.223.223,0,0,0,.3,0l2.2-2.208v2.482a.214.214,0,1,0,.429,0v-2.482l2.208,2.208a.223.223,0,0,0,.3,0,.219.219,0,0,0,0-.3l-2.208-2.208h2.482a.208.208,0,1,0,0-.416Z" transform="translate(-7.25 -20.349)" fill="#23a455" stroke="#707070" stroke-width="0.429"/>
      <path id="Path_47" data-name="Path 47" d="M278.809,184.312h-2.482l2.208-2.2a.219.219,0,0,0,0-.3.214.214,0,0,0-.3,0l-2.208,2.208v-2.487a.214.214,0,0,0-.214-.214.219.219,0,0,0-.214.214v2.487l-2.2-2.221a.214.214,0,0,0-.3,0,.219.219,0,0,0,0,.3l2.208,2.2h-2.487a.219.219,0,0,0-.214.214.214.214,0,0,0,.214.214h2.487l-2.208,2.208a.219.219,0,0,0,0,.3.223.223,0,0,0,.3,0l2.2-2.208v2.482a.214.214,0,1,0,.429,0v-2.482l2.208,2.208a.223.223,0,0,0,.3,0,.219.219,0,0,0,0-.3l-2.208-2.208h2.482a.208.208,0,1,0,0-.416Z" transform="translate(-7.25 -20.349)" fill="#23a455" stroke="#707070" stroke-width="0.429"/>
      <path id="Path_48" data-name="Path 48" d="M287.813,184.312H285.33l2.208-2.2a.219.219,0,0,0,0-.3.214.214,0,0,0-.3,0l-2.208,2.208v-2.487a.214.214,0,0,0-.214-.214.219.219,0,0,0-.214.214v2.487l-2.2-2.221a.214.214,0,0,0-.3,0,.219.219,0,0,0,0,.3l2.208,2.2H281.81a.219.219,0,0,0-.214.214.214.214,0,0,0,.214.214H284.3l-2.208,2.208a.219.219,0,0,0,0,.3.223.223,0,0,0,.3,0l2.2-2.208v2.482a.214.214,0,1,0,.429,0v-2.482l2.208,2.208a.223.223,0,0,0,.3,0,.219.219,0,0,0,0-.3l-2.208-2.208h2.482a.208.208,0,1,0,0-.416Z" transform="translate(-7.25 -20.349)" fill="#23a455" stroke="#707070" stroke-width="0.429"/>
      <path id="Path_49" data-name="Path 49" d="M296.816,184.312h-2.482l2.208-2.2a.219.219,0,0,0,0-.3.214.214,0,0,0-.3,0l-2.208,2.208v-2.487a.214.214,0,0,0-.214-.214.219.219,0,0,0-.214.214v2.487l-2.2-2.221a.214.214,0,0,0-.3,0,.219.219,0,0,0,0,.3l2.208,2.2h-2.487a.219.219,0,0,0-.214.214.214.214,0,0,0,.214.214H293.3l-2.208,2.208a.219.219,0,0,0,0,.3.223.223,0,0,0,.3,0l2.2-2.208v2.482a.214.214,0,0,0,.429,0v-2.482l2.208,2.208a.223.223,0,0,0,.3,0,.219.219,0,0,0,0-.3l-2.208-2.208h2.482a.208.208,0,1,0,0-.416Z" transform="translate(-7.25 -20.349)" fill="#23a455" stroke="#707070" stroke-width="0.429"/>
      <path id="Path_50" data-name="Path 50" d="M305.82,184.312h-2.482l2.208-2.2a.219.219,0,0,0,0-.3.214.214,0,0,0-.3,0l-2.208,2.208v-2.487a.214.214,0,0,0-.214-.214.219.219,0,0,0-.214.214v2.487l-2.2-2.221a.214.214,0,0,0-.3,0,.219.219,0,0,0,0,.3l2.208,2.2h-2.487a.219.219,0,0,0-.214.214.214.214,0,0,0,.214.214H302.3l-2.208,2.208a.219.219,0,0,0,0,.3.223.223,0,0,0,.3,0l2.2-2.208v2.482a.214.214,0,1,0,.429,0v-2.482l2.208,2.208a.223.223,0,0,0,.3,0,.219.219,0,0,0,0-.3l-2.208-2.208h2.482a.208.208,0,1,0,0-.416Z" transform="translate(-7.25 -20.349)" fill="#23a455" stroke="#707070" stroke-width="0.429"/>
      <path id="Path_51" data-name="Path 51" d="M314.824,184.312h-2.482l2.208-2.2a.219.219,0,0,0,0-.3.214.214,0,0,0-.3,0l-2.208,2.208v-2.487a.214.214,0,0,0-.214-.214.219.219,0,0,0-.214.214v2.487l-2.2-2.221a.214.214,0,0,0-.3,0,.219.219,0,0,0,0,.3l2.208,2.2h-2.487a.219.219,0,0,0-.214.214.214.214,0,0,0,.214.214h2.487l-2.208,2.208a.219.219,0,0,0,0,.3.223.223,0,0,0,.3,0l2.2-2.208v2.482a.214.214,0,1,0,.429,0v-2.482l2.208,2.208a.223.223,0,0,0,.3,0,.219.219,0,0,0,0-.3l-2.208-2.208h2.482a.208.208,0,1,0,0-.416Z" transform="translate(-7.25 -20.349)" fill="#23a455" stroke="#707070" stroke-width="0.429"/>
      <path id="Path_52" data-name="Path 52" d="M323.828,184.312h-2.482l2.208-2.2a.219.219,0,0,0,0-.3.214.214,0,0,0-.3,0l-2.208,2.208v-2.487a.214.214,0,0,0-.214-.214.219.219,0,0,0-.214.214v2.487l-2.2-2.221a.214.214,0,0,0-.3,0,.219.219,0,0,0,0,.3l2.208,2.2h-2.487a.219.219,0,0,0-.214.214.214.214,0,0,0,.214.214h2.487l-2.208,2.208a.219.219,0,0,0,0,.3.223.223,0,0,0,.3,0l2.2-2.208v2.482a.214.214,0,0,0,.429,0v-2.482l2.208,2.208a.223.223,0,0,0,.3,0,.219.219,0,0,0,0-.3l-2.208-2.208h2.482a.208.208,0,1,0,0-.416Z" transform="translate(-7.25 -20.349)" fill="#23a455" stroke="#707070" stroke-width="0.429"/>
      <path id="Path_53" data-name="Path 53" d="M332.832,184.312h-2.482l2.208-2.2a.219.219,0,0,0,0-.3.214.214,0,0,0-.3,0l-2.208,2.208v-2.487a.214.214,0,0,0-.214-.214.219.219,0,0,0-.214.214v2.487l-2.2-2.221a.214.214,0,0,0-.3,0,.219.219,0,0,0,0,.3l2.208,2.2h-2.487a.219.219,0,0,0-.214.214.214.214,0,0,0,.214.214h2.487l-2.208,2.208a.219.219,0,0,0,0,.3.223.223,0,0,0,.3,0l2.2-2.208v2.482a.214.214,0,1,0,.429,0v-2.482l2.208,2.208a.223.223,0,0,0,.3,0,.219.219,0,0,0,0-.3l-2.208-2.208h2.482a.208.208,0,1,0,0-.416Z" transform="translate(-7.25 -20.349)" fill="#23a455" stroke="#707070" stroke-width="0.429"/>
      <path id="Path_54" data-name="Path 54" d="M401.856,236.47a7.675,7.675,0,0,0-.193-1.539c-.386-1.449-1.256-3.2-2.688-3.64a22.567,22.567,0,0,1-4.262-1.8c-.257-4.6.8-9.3-.352-13.754a35,35,0,0,1-1.325-4.858c-.236-2.075.33-4.288-.5-6.2a6.119,6.119,0,0,0-3.623-3.13,19.305,19.305,0,0,0-4.832-.857c-2.058-.167-8.721-.956-11.045.883h0a2.427,2.427,0,0,0-.429.429h0a1.715,1.715,0,0,0-.137.223l-.021.034a1.743,1.743,0,0,0-.116.279h0a2.168,2.168,0,0,0-.073.322v.772c.03.386.086.772.086,1.153a2.484,2.484,0,0,1-.051.566,3.962,3.962,0,0,1-.712,1.389h0l-.077.111c-.047.069-.094.133-.137.2s-.077.12-.111.18-.069.1-.1.154a2.092,2.092,0,0,0-.111.219c0,.043-.047.081-.064.124a2.117,2.117,0,0,0-.129.36,2.392,2.392,0,0,0-.026,1.14,4.245,4.245,0,0,0,.587,1.351c.107.176.223.347.343.519l.3.407a9.252,9.252,0,0,0-.09,1.2,8.87,8.87,0,0,0,3.386,6.971,26.264,26.264,0,0,1-.055,5.442c-.039.377-.086.759-.137,1.136s-.09.626-.141.939a4.352,4.352,0,0,1-1.874-.141,8.83,8.83,0,0,0-.857-.33c-1.248-.313-2.521.93-3.756.553a.5.5,0,0,1-.056.172,1.681,1.681,0,0,0-.858-.253,3.128,3.128,0,0,1-1.861-1.068l-1.634-1.539a1.8,1.8,0,0,1-.283-.317,2.225,2.225,0,0,1-.2-.527,6.076,6.076,0,0,0-1.582-2.268,1.072,1.072,0,0,0-.467-.339.72.72,0,0,0-.214,0,1.877,1.877,0,0,0-.141-.171,4.041,4.041,0,0,0-.356-.36c-.78-.72-.858-1.338-1.535-2.144a20.6,20.6,0,0,1-1.6-2.422c-.056-.45-.133-.913-.227-1.381a17.767,17.767,0,0,0-.939-3.13l-.857-1.9-.1.1c-.622-.926-1.286-1.432-1.882-1.312-1,.206-1.492,2.144-1.333,4.678l.343,2.573a.794.794,0,0,0,.047.193,4.748,4.748,0,0,0-.094.926c0,.36.334.626.51.948a2.68,2.68,0,0,1,.429,1.462c-.021.184-.077.36-.086.54a2.079,2.079,0,0,0,.4,1.115l2.144,3.6.429.755.026.034a1.831,1.831,0,0,0,.575.66,7.854,7.854,0,0,0,.707,2.6c.073.163.154.317.24.472a15.164,15.164,0,0,0,2.024,2.628l1.02,1.145c1.008,1.123,2.015,2.251,3.108,3.289a4.164,4.164,0,0,0,1.389.973,1.573,1.573,0,0,0,1.561-.227v1.595a.9.9,0,0,1,.677,1.411,35.362,35.362,0,0,1-3.173,6.714,14.29,14.29,0,0,1,2.658,2.028,11.953,11.953,0,0,1,1.385,1.874c.039.317.069.63.086.943.317,5.111-1.659,10.183-3.43,15.053a11.729,11.729,0,0,0-1.025,4.262,8.367,8.367,0,0,0-.96.69,6.358,6.358,0,0,1,.176,2.718,4.815,4.815,0,0,1-.356,1.715,12.062,12.062,0,0,1-.617,1.1,16.36,16.36,0,0,0-1.578,6.526c-.133,1.351.39,3-.223,4.21a17.224,17.224,0,0,0-2.144,6.594,6.611,6.611,0,0,1-.2,1.539c-.133.429-.369.793-.489,1.213a5.192,5.192,0,0,0-.086,1.715,16.412,16.412,0,0,1-.9,6.05c-.536,1.531-1.128,3.168-.707,4.742a6.684,6.684,0,0,0-1.814,3.983,6.281,6.281,0,0,1-.137,1.136,5.525,5.525,0,0,1-.515,1.093,9.57,9.57,0,0,0-1.166,5.145,14.312,14.312,0,0,0-2.311,6.037c-.382,2.139-.549,4.318-1.038,6.431-.652,2.8-1.831,5.621-2.062,8.485a5.977,5.977,0,0,0-2.255,4.232,18.835,18.835,0,0,1-.99,4.832c-.352.78-.858,1.479-1.192,2.277a10.456,10.456,0,0,0-.514,1.959,7.646,7.646,0,0,0-.133,3.216,4.848,4.848,0,0,1-1.256.956c.069-.266.124-.532.171-.8-1.106,1-3.113.652-4,1.857a1.809,1.809,0,0,0,.429,2.482,3.432,3.432,0,0,0,.888.382c2.144.686,4.348,1.376,6.551,1.012a1.955,1.955,0,0,0,.742-.236,2.388,2.388,0,0,0,.69-.8q.5-.785.986-1.569a20.362,20.362,0,0,0,2.405.562c.081.686.141,1.372.171,2.058.429.086,1,.111,1.2-.287a1.042,1.042,0,0,0,.073-.476c0-.3.043-.707.069-1.119h.086a8.146,8.146,0,0,0,3.794-.767c-.459-3.8,1.055-7.512,2.367-11.1,1.385-3.782,2.573-7.632,3.769-11.482.857-2.71,1.805-5.334,2.645-8.048q1.586-5.145,3.186-10.29c.463-1.509.93-3,1.462-4.5a70.135,70.135,0,0,1,3.975-8.845c.429-.81.857-1.612,1.209-2.452.429-1.025.733-2.1,1.076-3.156a48.878,48.878,0,0,1,2.693-6.337c.03-.056.051-.107.081-.159.347,1.419.695,2.86.926,4.288a16.292,16.292,0,0,1,.073,5.3,17.476,17.476,0,0,0-.549,3.593c.064,1.676.96,3.2,1.4,4.815a18.326,18.326,0,0,1,.48,3.687c.12,1.929,1.166,4.095.429,5.882-2.294,5.664-1.183,12.061-2.491,18.008-.673,3.053-2.735,5.921-2.573,9.042q.172,3.323.583,6.629a6.309,6.309,0,0,0,.536,2.011,7.382,7.382,0,0,0,.587.96c-.189.073-.347.266-.484.673a2.645,2.645,0,0,0,.952,3,4.168,4.168,0,0,0,1.239.429,6.524,6.524,0,0,0,1.792.249,4.182,4.182,0,0,0,.562-.069,20.435,20.435,0,0,0,2.028.729,4.4,4.4,0,0,0,.056.527.656.656,0,0,0,.223.484.669.669,0,0,0,.343.06h2.328V364.9a1.917,1.917,0,0,0,1.479-.48,2.289,2.289,0,0,0,.429-.892q.952-3.229,1.891-6.461a20.657,20.657,0,0,0,.922-7.375c-.827-7.9.99-15.829.4-23.753a56.9,56.9,0,0,1,.729-14.252c.193-1.063.429-2.144.515-3.2.189-2-.043-4.017.1-6,.047-.695.142-1.385.227-2.075a99.657,99.657,0,0,0,.922-12.927,40.727,40.727,0,0,0-.266-4.288,2.448,2.448,0,0,0,1.171-.686,2.916,2.916,0,0,0,.279-1.831,13.273,13.273,0,0,1,1.153-4.382,52.057,52.057,0,0,0,1.621-6.028,21.046,21.046,0,0,0,.72-5.038q0-.257-.026-.515a1.328,1.328,0,0,0,.394-.429,2.491,2.491,0,0,0,.206-.793c.154-1.093.313-2.191.467-3.289q.171-1.179.339-2.354l1.363-9.514c.116-.827.236-1.651.352-2.474l.356-2.461c.039-.292.081-.583.111-.857C402.967,240.791,401.968,238.459,401.856,236.47ZM390.482,272.09a7.837,7.837,0,0,1-.858-3.726h-.047a1.912,1.912,0,0,0-.056-1.209c-.133-.313-.364-.579-.506-.892a3.267,3.267,0,0,1-.232-1.2,32.729,32.729,0,0,1,.613-7.778c.056-.3.116-.6.172-.9a2.239,2.239,0,0,0,.489-.382,3.477,3.477,0,0,0,.553-.858c.485-.973.926-1.964,1.333-2.971.133-.326.326-.7.656-.785-.069,2.508.189,5.068-.832,7.332a4.637,4.637,0,0,0-.429,1.158c-.094.639.172,1.286.077,1.921-.047.33-.189.635-.244.96a.939.939,0,0,0,.249.909.749.749,0,0,0,.184.094c-.026.171-.047.347-.064.514-.034.352-.051.682-.073.888a27.66,27.66,0,0,0-.116,3.156c0,1.136.043,2.272.026,3.43a2.328,2.328,0,0,1-.163.973,1.689,1.689,0,0,1-.326.429,11.145,11.145,0,0,0-.407-1.059Z" transform="translate(-7.25 -20.349)" stroke="#707070" stroke-width="0.429" fill="url(#linear-gradient)"/>
      <ellipse id="Ellipse_4" data-name="Ellipse 4" cx="2.418" cy="6.847" rx="2.418" ry="6.847" transform="matrix(0.98, -0.201, 0.201, 0.98, 344.271, 189.063)" fill="#fbbebe" stroke="#707070" stroke-width="0.429"/>
      <path id="Path_55" data-name="Path 55" d="M376.616,360.152a2.6,2.6,0,0,0,.952,2.971,4.237,4.237,0,0,0,1.231.429,6.491,6.491,0,0,0,1.788.244c.742-.034,1.453-.326,2.2-.429a.343.343,0,0,1,.253.034.365.365,0,0,1,.094.3,11.332,11.332,0,0,0,.094,1.261.648.648,0,0,0,.223.484.669.669,0,0,0,.343.06h2.324a22.663,22.663,0,0,0-.665-6.063,1.354,1.354,0,0,0-.172-.429,1.419,1.419,0,0,0-.742-.429,4.146,4.146,0,0,0-1.8-.313,5.263,5.263,0,0,0-2.015.986,3.07,3.07,0,0,1-2.285.553C377.662,359.607,377.015,358.96,376.616,360.152Z" transform="translate(-7.25 -20.349)" fill="#3f3d56" stroke="#707070" stroke-width="0.429"/>
      <path id="Path_56" data-name="Path 56" d="M342.5,358.27a6.431,6.431,0,0,1-2.345,1.595l-.395.189a.274.274,0,0,0-.133.107.231.231,0,0,0,.043.193,2.774,2.774,0,0,0,3.147,1.145,1.668,1.668,0,0,0,.69-.36,2.264,2.264,0,0,0,.532-1.381,2.826,2.826,0,0,0-.064-1.582C343.375,356.833,343.156,357.442,342.5,358.27Z" transform="translate(-7.25 -20.349)" fill="#fbbebe" stroke="#707070" stroke-width="0.429"/>
      <path id="Path_57" data-name="Path 57" d="M351.405,363.552a1.042,1.042,0,0,1-.073.476c-.2.394-.763.373-1.2.287a28.855,28.855,0,0,0-.527-4.33c-.832-.039-1.432.75-1.878,1.458l-1.149,1.822a2.375,2.375,0,0,1-.686.8,2.032,2.032,0,0,1-.742.236c-2.2.364-4.412-.326-6.53-1.012a3.46,3.46,0,0,1-.888-.377,1.814,1.814,0,0,1-.429-2.478c.888-1.2,2.881-.857,3.987-1.852a9.981,9.981,0,0,1-.566,2.045c1.479-.223,2.474-1.578,3.666-2.482a2.255,2.255,0,0,1,1.046-.5,2.3,2.3,0,0,1,.857.09,10.059,10.059,0,0,1,3.773,1.857A4.068,4.068,0,0,1,351.418,361,10.411,10.411,0,0,1,351.405,363.552Z" transform="translate(-7.25 -20.349)" fill="#3f3d56" stroke="#707070" stroke-width="0.429"/>
      <circle id="Ellipse_5" data-name="Ellipse 5" cx="8.858" cy="8.858" r="8.858" transform="translate(364.791 184.025)" fill="#fbbebe" stroke="#707070" stroke-width="0.429"/>
      <path id="Path_58" data-name="Path 58" d="M398.349,265.53a21.008,21.008,0,0,1-.716,5.012,51.729,51.729,0,0,1-1.621,6,13.21,13.21,0,0,0-1.145,4.373,2.908,2.908,0,0,1-.283,1.827,2.667,2.667,0,0,1-1.252.716,1.565,1.565,0,0,0-1.055.939,6.625,6.625,0,0,1-.892-1.964q-1.153-3.533-2.144-7.1a.922.922,0,0,1,.06-.858,1.064,1.064,0,0,1,.373-.21,3.858,3.858,0,0,0,1.188-.763,1.736,1.736,0,0,0,.394-.51,2.311,2.311,0,0,0,.167-.969c0-1.136,0-2.268-.03-3.4a28.44,28.44,0,0,1,.12-3.143c0-.206.039-.536.073-.888.064-.673.193-1.453.557-1.715.545-.364,2.174.124,2.791.21,1.063.146,2.144.317,3.181.519A8.495,8.495,0,0,1,398.349,265.53Z" transform="translate(-7.25 -20.349)" fill="#3f3d56" stroke="#707070" stroke-width="0.429"/>
      <path id="Path_59" data-name="Path 59" d="M362.583,223.148c-.343.686-1.166,1.016-1.8,1.449l-2.174,1.492a1.449,1.449,0,0,1-1.076.369,1.415,1.415,0,0,1-.8-.75.148.148,0,0,0,0-.034l-.45-.755-2.144-3.593a2.045,2.045,0,0,1-.4-1.106c0-.184.064-.356.081-.54a2.594,2.594,0,0,0-.429-1.458c-.172-.322-.514-.587-.506-.948a3.43,3.43,0,0,1,.24-1.385,2.8,2.8,0,0,1,.939-1c.2-.146.407-.283.622-.429a1.225,1.225,0,0,1,.373-.172c.356-.073.707.223,1.068.236,1.548,1.038,2.144,3,3.361,4.416.686.806.755,1.423,1.531,2.144.124.111.244.232.36.356a2.49,2.49,0,0,1,.386.557C361.905,222.364,362.759,222.8,362.583,223.148Z" transform="translate(-7.25 -20.349)" fill="#3f3d56" stroke="#707070" stroke-width="0.429"/>
      <path id="Path_60" data-name="Path 60" d="M377.786,222.094a7.982,7.982,0,0,1,.952,4.318,2.7,2.7,0,0,1-.373,1.136c-.617.948-1.912,1.119-3.04,1.175a1.792,1.792,0,0,0-1.321.429,1.2,1.2,0,0,0,.081,1.466,3.31,3.31,0,0,0,1.312.858,11.616,11.616,0,0,0,5.647,1.252c.9-.086,1.775-.347,2.671-.48a28.05,28.05,0,0,1,2.941-.163c1.166-.043,2.328-.159,3.49-.274l3.078-.3a.686.686,0,0,0,.459-.167c.227-.266-.064-.656-.347-.858-1.634-1.209-3.713-2.041-4.643-3.859a22.712,22.712,0,0,1-.879-2.8,23.567,23.567,0,0,1-1.02-2.705,17.93,17.93,0,0,1-.142-2.5,3.349,3.349,0,0,0-.857-2.281,3.575,3.575,0,0,0-2.332-.75,7.55,7.55,0,0,0-5.685,1.844c-.39.39-.725.857-1.128,1.209s-.952.454-.686.918.789.75,1.072,1.158A9.861,9.861,0,0,1,377.786,222.094Z" transform="translate(-7.25 -20.349)" fill="#fbbebe" stroke="#707070" stroke-width="0.429"/>
      <path id="Path_61" data-name="Path 61" d="M395.249,234.566a48.712,48.712,0,0,1-2.624,9.66,36.38,36.38,0,0,0-1.544,4.33c-.33,1.329-.266,2.753-.57,4.086-.377,1.659-.755,3.323-1.059,4.995a32.75,32.75,0,0,0-.609,7.76,3.245,3.245,0,0,0,.232,1.2c.142.309.369.575.5.892a2.143,2.143,0,0,1-.12,1.715,4.964,4.964,0,0,1-.883,1.338c-4,1.192-8.271.8-12.434,1.055-3.837.232-7.718,1.02-11.5.364-.429-1.715.287-3.512.9-5.184,1.779-4.858,3.747-9.917,3.43-15.006a15.541,15.541,0,0,0-.2-1.771,23.473,23.473,0,0,1,1.14-10.835,18.6,18.6,0,0,0,.489-6.766,12.355,12.355,0,0,1-.03-2.217,3.9,3.9,0,0,1,.806-2.071c0-.03.039-.06.06-.09a.589.589,0,0,1,.322,0h0a.275.275,0,0,0,.214,0l.047-.03a.107.107,0,0,1,.124,0c.1.06.154.266.369.3a8.547,8.547,0,0,0,.956.09,5.145,5.145,0,0,1,1.141.163h.051a3.348,3.348,0,0,0,1.664-.142,4.421,4.421,0,0,0,1.02-.394c.094-.1.686-.2.806-.27.39-.236.3-1.342.386-1.8a4.939,4.939,0,0,1,.322-1.329,2.264,2.264,0,0,1,1.835-1.068,9.772,9.772,0,0,1,2.2.2c1.6.227,3.237.189,4.806.557a3.58,3.58,0,0,0,2.375.1c.2.047.227.219.227.429a2.746,2.746,0,0,1-.12.587c-.274,1.183.656,2.272,1.513,3.13a4.853,4.853,0,0,0,1.265,1.008c.429.2.857.279,1.286.493a2.341,2.341,0,0,1,.858.785,3.275,3.275,0,0,1,.489,1.248,7.461,7.461,0,0,1-.142,2.483Z" transform="translate(-7.25 -20.349)" fill="#3f3d56" stroke="#707070" stroke-width="0.429"/>
      <path id="Path_62" data-name="Path 62" d="M395.249,234.566a48.712,48.712,0,0,1-2.624,9.66,36.38,36.38,0,0,0-1.544,4.33c-.33,1.329-.266,2.753-.57,4.086-.377,1.659-.755,3.323-1.059,4.995-.09.051-.184.1-.279.141a6.579,6.579,0,0,1-1.681.54,10.29,10.29,0,0,1-3.138-.1l-6.118-.819c-2.444-.33-5.046-.729-6.86-2.384a14.637,14.637,0,0,1-2.392-3.267,15.547,15.547,0,0,0-.2-1.771,23.474,23.474,0,0,1,1.14-10.835,18.6,18.6,0,0,0,.489-6.766,12.355,12.355,0,0,1-.03-2.217,3.9,3.9,0,0,1,.806-2.071,3.057,3.057,0,0,1,.382-.086h0a1.9,1.9,0,0,1,.262-.034h.124a1.871,1.871,0,0,1,.429.051,7.755,7.755,0,0,1,.857.33h.051a3.284,3.284,0,0,0,1.14.163c.566,0,1.149-.09,1.715-.129a3.164,3.164,0,0,1,2.032.364,12.185,12.185,0,0,1,1.132,1.033,4.861,4.861,0,0,0,1.428.776,15.174,15.174,0,0,0,11.413-.24,2.233,2.233,0,0,1,1.145-.292,2.144,2.144,0,0,1,.823.352c.257.15.51.3.772.429a3.276,3.276,0,0,1,.489,1.248A7.46,7.46,0,0,1,395.249,234.566Z" transform="translate(-7.25 -20.349)" stroke="#707070" stroke-width="0.429" opacity="0.1"/>
      <path id="Path_63" data-name="Path 63" d="M398.984,231.728a22.882,22.882,0,0,1-4.888-2.144,2.191,2.191,0,0,0-.823-.352,2.3,2.3,0,0,0-1.149.292,15.165,15.165,0,0,1-11.409.24,4.961,4.961,0,0,1-1.428-.776,12.814,12.814,0,0,0-1.132-1.033c-1.411-.913-3.361.159-4.939-.429a8.741,8.741,0,0,0-.858-.33c-1.248-.313-2.517.93-3.743.553a20.857,20.857,0,0,0-1.008,3.824,41.692,41.692,0,0,0-.279,4.51c0,.9-.043,1.809,0,2.714a.89.89,0,0,1,.677,1.406,35.146,35.146,0,0,1-3.164,6.693,14.543,14.543,0,0,1,2.65,2.024c1.5,1.586,2.238,3.812,3.859,5.278,1.826,1.651,4.429,2.054,6.86,2.38l6.118.819a10.458,10.458,0,0,0,3.143.107,6.616,6.616,0,0,0,1.676-.545,3,3,0,0,0,.935-.617,3.429,3.429,0,0,0,.553-.858c.484-.969.926-1.959,1.333-2.963.142-.356.356-.772.742-.8,2.272-2.049,4.416-4.15,6.689-6.2a14.821,14.821,0,0,0,2.44-2.573c1.128-1.668.1-4.03,0-6.045a7.632,7.632,0,0,0-.193-1.531C401.278,233.91,400.412,232.161,398.984,231.728Z" transform="translate(-7.25 -20.349)" fill="#23a455" stroke="#707070" stroke-width="0.429"/>
      <path id="Path_64" data-name="Path 64" d="M362.583,223.148c-.343.686-1.166,1.016-1.8,1.449l-2.174,1.492a1.449,1.449,0,0,1-1.076.369,1.415,1.415,0,0,1-.8-.75V225.4a2.877,2.877,0,0,1,.137-1.025,3.194,3.194,0,0,1,.96-1.235,7.863,7.863,0,0,1,2.817-1.715.965.965,0,0,1,.515-.051.678.678,0,0,1,.189.081,2.489,2.489,0,0,1,.386.557C361.905,222.364,362.759,222.8,362.583,223.148Z" transform="translate(-7.25 -20.349)" stroke="#707070" stroke-width="0.429" opacity="0.1"/>
      <path id="Path_65" data-name="Path 65" d="M367.7,227.667a3.123,3.123,0,0,1-1.857-1.063l-1.625-1.509a1.519,1.519,0,0,1-.283-.317,2.225,2.225,0,0,1-.2-.527,6.05,6.05,0,0,0-1.578-2.264,1.029,1.029,0,0,0-.467-.334.939.939,0,0,0-.519.051,7.842,7.842,0,0,0-2.817,1.715,3.2,3.2,0,0,0-.96,1.235,2.851,2.851,0,0,0-.137,1.025,7.873,7.873,0,0,0,.746,3.276c.073.159.154.317.24.472a14.848,14.848,0,0,0,2.015,2.62l1.02,1.14c1,1.123,2.007,2.247,3.1,3.28a4.089,4.089,0,0,0,1.389.969,1.552,1.552,0,0,0,1.595-.257,2.306,2.306,0,0,0,.454-.815,16.036,16.036,0,0,0,1.325-5.347,20.187,20.187,0,0,0-.094-2.217C368.984,228.019,368.431,227.715,367.7,227.667Z" transform="translate(-7.25 -20.349)" fill="#23a455" stroke="#707070" stroke-width="0.429"/>
      <path id="Path_66" data-name="Path 66" d="M393.684,287.693a99.08,99.08,0,0,1-.918,12.893c-.086.69-.18,1.381-.227,2.071-.141,2,.09,4.013-.1,6-.1,1.076-.322,2.144-.51,3.194a56.8,56.8,0,0,0-.729,14.213c.592,7.9-1.222,15.808-.4,23.689a19.15,19.15,0,0,1-.253,4.583,19.426,19.426,0,0,1-.664,2.77q-.939,3.22-1.887,6.431a2.23,2.23,0,0,1-.429.892,2.032,2.032,0,0,1-1.608.476,18.547,18.547,0,0,1-7.049-2.187,2.456,2.456,0,0,1-.707-.429c-.467-.485-.429-1.248-.635-1.887a17.952,17.952,0,0,0-1.08-1.9,6.187,6.187,0,0,1-.467-1.951q-.429-3.293-.583-6.611c-.163-3.113,1.9-5.977,2.573-9,1.286-5.951.2-12.331,2.482-17.978.72-1.784-.326-3.945-.429-5.865a18.6,18.6,0,0,0-.48-3.679c-.429-1.612-1.333-3.13-1.4-4.8a17.642,17.642,0,0,1,.545-3.58,16.091,16.091,0,0,0-.073-5.287c-.227-1.441-.575-2.881-.922-4.288l-.077.159a48.442,48.442,0,0,0-2.688,6.324c-.343,1.05-.643,2.122-1.072,3.143-.352.858-.785,1.642-1.209,2.448a70.308,70.308,0,0,0-3.966,8.811c-.532,1.483-1,3-1.462,4.489l-3.177,10.29c-.858,2.705-1.8,5.321-2.637,8.022-1.188,3.859-2.375,7.683-3.756,11.456-1.286,3.58-2.817,7.289-2.358,11.07a8.146,8.146,0,0,1-3.786.767,22.167,22.167,0,0,1-6.431-1.561,5,5,0,0,1-2.221-1.321c-.952-1.162-.716-2.864-.429-4.343a10.493,10.493,0,0,1,.514-1.955c.326-.789.858-1.488,1.192-2.268a19.028,19.028,0,0,0,.982-4.815,5.941,5.941,0,0,1,2.247-4.223c.236-2.855,1.411-5.672,2.058-8.464.489-2.114.652-4.288,1.038-6.431a14.126,14.126,0,0,1,2.3-6.024,9.548,9.548,0,0,1,1.166-5.145,5.625,5.625,0,0,0,.51-1.093,6.281,6.281,0,0,0,.137-1.132,6.693,6.693,0,0,1,1.809-3.975c-.429-1.565.167-3.2.7-4.716a16.387,16.387,0,0,0,.9-6.033,5.286,5.286,0,0,1,.082-1.715c.12-.429.356-.793.493-1.2a6.858,6.858,0,0,0,.193-1.539,17.8,17.8,0,0,1,2.144-6.577c.617-1.209.094-2.851.223-4.2a16.225,16.225,0,0,1,1.578-6.5c.206-.369.429-.72.613-1.1a4.771,4.771,0,0,0,.356-1.715,6.315,6.315,0,0,0-.176-2.71c2.294-1.908,5.424-2.444,8.408-2.573s6,.141,8.922-.493c.858-.193,1.715-.459,2.62-.587a16.949,16.949,0,0,1,6.165.63,7.344,7.344,0,0,0,.858,3.717,39.9,39.9,0,0,1,3.177,15.315Z" transform="translate(-7.25 -20.349)" fill="#33313f" stroke="#707070" stroke-width="0.429"/>
      <path id="Path_67" data-name="Path 67" d="M383.587,288.674l-4.926,11.079c-.227-1.441-.575-2.881-.922-4.288l-.077.159v-.232l2.684-5.9Z" transform="translate(-7.25 -20.349)" stroke="#707070" stroke-width="0.429" opacity="0.1"/>
      <path id="Path_68" data-name="Path 68" d="M398.349,265.53a1.852,1.852,0,0,1-.978.364,4.754,4.754,0,0,1-1.6-.219l-3.859-.965a1.894,1.894,0,0,1-.352-.124c.064-.673.193-1.453.557-1.715.545-.364,2.174.124,2.791.21,1.063.146,2.144.317,3.181.519a8.5,8.5,0,0,1,.262,1.929Z" transform="translate(-7.25 -20.349)" stroke="#707070" stroke-width="0.429" opacity="0.1"/>
      <path id="Path_69" data-name="Path 69" d="M401.612,240.02c.081.356.2.707.266,1.068a8.147,8.147,0,0,1-.09,2.654l-.352,2.452-.352,2.465-1.359,9.488-.334,2.35-.472,3.28a2.358,2.358,0,0,1-.206.789,1.642,1.642,0,0,1-1.342.793,4.863,4.863,0,0,1-1.6-.219l-3.859-.969a1.209,1.209,0,0,1-.472-.193.93.93,0,0,1-.249-.9c.056-.326.2-.63.244-.956.094-.635-.172-1.286-.077-1.917a4.767,4.767,0,0,1,.429-1.153c1.286-2.843.54-6.161.978-9.248a14.02,14.02,0,0,1,2.976-6.62,19,19,0,0,1,3.284-3.224,6.61,6.61,0,0,1,1.848-1.286C401.646,238.506,401.483,239.479,401.612,240.02Z" transform="translate(-7.25 -20.349)" fill="#23a455" stroke="#707070" stroke-width="0.429"/>
      <path id="Path_70" data-name="Path 70" d="M372.41,203.087c-.283.9.159,1.891-.043,2.808-.219,1.012-1.171,1.715-1.441,2.731-.429,1.548.883,2.958,1.844,4.245,3.559,4.776,3.091,11.388,1.874,17.214a88.891,88.891,0,0,1-4.052,13.72,10.514,10.514,0,0,1-2.182,3.829c1.972-.566,4.069-1.136,6.045-.587,2.5.695,4.665,3.126,7.2,2.573,1.526-.339,2.6-1.694,3.97-2.444,2.573-1.385,5.672-.515,8.541-.069a3.353,3.353,0,0,0,1.865-.094,3.1,3.1,0,0,0,1.132-1.042,10.573,10.573,0,0,0,2.2-5.7,7.314,7.314,0,0,0-2.105-5.63,12.044,12.044,0,0,1-1.805-1.715,5.325,5.325,0,0,1-.707-2.6c-.339-4.716.81-9.531-.373-14.093a34.788,34.788,0,0,1-1.316-4.845c-.236-2.071.326-4.288-.5-6.183a6.063,6.063,0,0,0-3.614-3.121,19.8,19.8,0,0,0-4.819-.857C381.782,201.029,373.392,200.021,372.41,203.087Z" transform="translate(-7.25 -20.349)" fill="#33313f" stroke="#707070" stroke-width="0.429"/>
      <g id="Group_1" data-name="Group 1" opacity="0.1">
        <path id="Path_71" data-name="Path 71" d="M374.644,230.086a88.716,88.716,0,0,1-4.03,13.664c.3-.587.545-1.2.78-1.818a88.417,88.417,0,0,0,4.052-13.72c1.222-5.831,1.689-12.434-1.869-17.214-.858-1.14-1.959-2.375-1.921-3.713a4.569,4.569,0,0,0-.729,1.346c-.429,1.548.883,2.958,1.844,4.245C376.329,217.647,375.861,224.259,374.644,230.086Z" transform="translate(-7.25 -20.349)" stroke="#707070" stroke-width="0.429"/>
        <path id="Path_72" data-name="Path 72" d="M372.418,205.462a4.172,4.172,0,0,0,.755-1.445,7.346,7.346,0,0,0-.051-1.912,2.062,2.062,0,0,0-.712.982A8.48,8.48,0,0,0,372.418,205.462Z" transform="translate(-7.25 -20.349)" stroke="#707070" stroke-width="0.429"/>
        <path id="Path_73" data-name="Path 73" d="M397.972,244.084a3.087,3.087,0,0,1-1.132,1.038,3.276,3.276,0,0,1-1.865.094c-2.868-.429-6-1.312-8.541.073-1.376.746-2.444,2.1-3.975,2.444-2.534.566-4.695-1.865-7.2-2.573a10.05,10.05,0,0,0-5.432.429,7.492,7.492,0,0,1-1.419,2.049c1.972-.566,4.069-1.136,6.045-.587,2.5.695,4.665,3.126,7.2,2.573,1.526-.339,2.6-1.694,3.97-2.444,2.573-1.385,5.672-.515,8.541-.069a3.353,3.353,0,0,0,1.865-.094,3.1,3.1,0,0,0,1.132-1.042,11.526,11.526,0,0,0,1.775-3.4,12.472,12.472,0,0,1-.969,1.5Z" transform="translate(-7.25 -20.349)" stroke="#707070" stroke-width="0.429"/>
      </g>
    </g>
  </g>
</svg>
